<?xml version="1.0" encoding="utf-8"?>
<!-- Generator: Adobe Illustrator 16.0.0, SVG Export Plug-In . SVG Version: 6.00 Build 0)  -->
<!DOCTYPE svg PUBLIC "-//W3C//DTD SVG 1.1//EN" "http://www.w3.org/Graphics/SVG/1.1/DTD/svg11.dtd">
<svg version="1.1" id="圖層_1" xmlns="http://www.w3.org/2000/svg" xmlns:xlink="http://www.w3.org/1999/xlink" x="0px" y="0px"
	 width="178.3px" height="120px" viewBox="0 0 178.3 120" enable-background="new 0 0 178.3 120" xml:space="preserve">
<g>
</g>
<g>
	<path fill="#FFFFFF" d="M46.841,41.991h-6.66l2.052,1.23c-0.9,2.974-1.98,5.389-3.24,7.246l-2.682-1.794
		c1.356-2.085,2.388-4.312,3.096-6.682h-1.818V20.714h9.252V41.991z M43.781,26.935v-3.281h-3.132v3.281H43.781z M43.781,32.968
		v-3.333h-3.132v3.333H43.781z M43.781,39.12v-3.435h-3.132v3.435H43.781z M48.317,48.366l-2.898,1.145
		c-0.516-1.891-1.404-3.851-2.664-5.879l2.664-1.145C46.487,44.037,47.453,45.996,48.317,48.366z M68.89,44.896h-2.322v2.273
		c0,1.162-0.264,2.002-0.792,2.521c-0.528,0.519-1.554,0.778-3.078,0.778c-0.612,0-1.375-0.04-2.286-0.12l-1.098-2.939
		c0.612,0.057,1.266,0.085,1.962,0.085c1.067,0,1.688-0.057,1.863-0.171c0.174-0.114,0.261-0.319,0.261-0.615v-1.812H52.961v5.52
		h-3.204v-5.52h-2.178v-2.478h2.178v-8.066h6.93v-1.88h-9.018v-2.495h4.86v-1.709h-3.06v-2.273h3.06V24.32h-3.906v-2.393h3.906
		v-1.982h3.168v1.982h5.31v-1.982h3.167v1.982h4.392v2.393h-4.392v1.675h2.988v2.273h-2.988v1.709h4.716v2.495h-8.945v1.88h6.624
		v8.066h2.322V44.896z M56.687,38.488v-1.606h-3.726v1.606H56.687z M56.687,42.418v-1.624h-3.726v1.624H56.687z M61.007,25.927
		V24.32h-5.31v1.606H61.007z M61.007,29.977v-1.709h-5.31v1.709H61.007z M63.4,38.488v-1.606h-3.456v1.606H63.4z M63.4,42.418
		v-1.624h-3.456v1.624H63.4z"/>
	<path fill="#FFFFFF" d="M86.584,37.479c-0.984,0.376-2.238,0.809-3.762,1.299v11.536h-3.204V39.787
		c-1.236,0.365-3.09,0.877-5.562,1.538l-0.702-3.008c1.956-0.456,4.043-1.002,6.264-1.641v-6.904H77.08
		c-0.216,1.379-0.576,3.002-1.08,4.871l-2.826-0.769c0.96-3.384,1.56-7.189,1.8-11.416l2.916,0.496
		c-0.12,1.538-0.258,2.843-0.414,3.914h2.142v-6.921h3.204v6.921h2.988l0.036,2.905h-3.024v5.879c2.16-0.74,3.33-1.145,3.51-1.213
		L86.584,37.479z M105.159,24.286c-0.061,3.977-0.192,8.306-0.396,12.988s-0.387,7.671-0.549,8.963
		c-0.162,1.293-0.485,2.225-0.972,2.794s-1.029,0.951-1.629,1.145c-0.601,0.193-2.076,0.291-4.428,0.291
		c-0.84,0-1.548-0.017-2.124-0.051l-0.954-2.939c1.392,0.068,2.556,0.103,3.492,0.103c1.536,0,2.46-0.108,2.771-0.325
		c0.313-0.216,0.537-0.569,0.675-1.06c0.139-0.49,0.298-2.575,0.478-6.255c0.18-3.68,0.312-7.907,0.396-12.681h-0.989
		c-0.612,4.808-1.755,8.918-3.43,12.331c-1.674,3.412-4.166,6.753-7.479,10.023l-2.736-2.017c3.228-3.019,5.661-6.089,7.299-9.211
		c1.638-3.122,2.708-6.83,3.213-11.125h-1.656c-1.32,6.289-4.11,11.467-8.37,15.535l-2.664-1.931
		c4.056-3.555,6.69-8.089,7.902-13.604h-1.548c-1.009,2.324-2.202,4.364-3.582,6.118l-2.772-1.572
		c2.328-2.654,4.188-6.682,5.58-12.083l3.168,0.53c-0.348,1.413-0.768,2.757-1.26,4.033H105.159z"/>
	<path fill="#FFFFFF" d="M142.543,45.973h-14.345v4.341h-3.24v-4.341h-14.489v-2.786h14.489v-2.427h-11.466V27.892h11.466v-2.427
		h-13.716v-2.837h13.716v-2.786h3.24v2.786h13.571v2.837h-13.571v2.427h11.357v12.869h-11.357v2.427h14.345V45.973z M124.958,33.036
		v-2.461h-8.136v2.461H124.958z M124.958,38.112V35.48h-8.136v2.632H124.958z M136.279,33.036v-2.461h-8.081v2.461H136.279z
		 M136.279,38.112V35.48h-8.081v2.632H136.279z"/>
</g>
<g>
</g>
<g>
	<path fill="#FFFFFF" d="M58.553,67.573c1.283,0,2.522,0.282,3.718,0.844c0.563,0.264,0.954,0.396,1.173,0.396
		c0.158,0,0.413-0.04,0.765-0.119c0.114-0.026,0.242-0.039,0.382-0.039c0.457,0,0.857,0.211,1.2,0.633
		c0.844,1.02,1.266,2.285,1.266,3.797c0,1.063-0.365,1.841-1.094,2.333c-0.396,0.264-0.839,0.396-1.332,0.396
		c-0.448,0-0.813-0.097-1.094-0.29s-0.554-0.536-0.817-1.028c-0.378-0.694-0.686-1.193-0.923-1.496
		c-0.237-0.304-0.527-0.578-0.87-0.824c-0.853-0.598-1.745-0.896-2.676-0.896c-0.905,0-1.624,0.327-2.156,0.982
		c-0.532,0.654-0.797,1.531-0.797,2.63c0,1.512,0.382,2.896,1.147,4.153c1.037,1.679,2.522,2.518,4.456,2.518
		c0.712,0,1.417-0.119,2.116-0.355c0.698-0.238,1.241-0.545,1.628-0.924c0.334-0.316,0.606-0.475,0.817-0.475
		c0.308,0,0.571,0.144,0.791,0.429c0.22,0.286,0.33,0.631,0.33,1.035c0,0.51-0.154,1.081-0.461,1.714s-0.677,1.13-1.107,1.49
		c-0.185,0.149-0.567,0.281-1.147,0.395c-0.334,0.063-0.778,0.225-1.332,0.488c-1.301,0.624-2.654,0.936-4.061,0.936
		c-1.468,0-2.931-0.329-4.39-0.988c-1.696-0.765-3.037-1.938-4.021-3.52c-0.967-1.538-1.45-3.146-1.45-4.826
		c0-1.951,0.606-3.73,1.819-5.339c1.055-1.397,2.43-2.466,4.126-3.204C55.85,67.855,57.182,67.573,58.553,67.573z"/>
	<path fill="#FFFFFF" d="M84.669,76.829l2.492,5.339c0.237,0.492,0.435,0.815,0.593,0.969c0.158,0.154,0.4,0.257,0.725,0.31
		c0.633,0.098,0.95,0.418,0.95,0.963c0,0.642-0.388,1.104-1.161,1.385c-0.773,0.28-2.039,0.422-3.797,0.422
		c-1.986,0-3.458-0.084-4.417-0.251c-0.439-0.079-0.789-0.239-1.048-0.481c-0.26-0.241-0.389-0.533-0.389-0.877
		c0-0.264,0.068-0.468,0.205-0.612c0.136-0.146,0.389-0.279,0.758-0.402c0.413-0.141,0.62-0.378,0.62-0.712
		c0-0.589-0.356-0.936-1.068-1.041c-0.765-0.105-1.841-0.158-3.23-0.158c-1.169,0-1.868,0.07-2.096,0.211
		c-0.141,0.088-0.264,0.246-0.369,0.475s-0.158,0.447-0.158,0.658c0,0.194,0.037,0.319,0.112,0.376
		c0.074,0.058,0.318,0.151,0.731,0.284c0.536,0.158,0.804,0.475,0.804,0.949c0,1.046-1.252,1.568-3.757,1.568
		c-1.424,0-2.47-0.097-3.138-0.29c-0.615-0.185-0.923-0.589-0.923-1.213c0-0.272,0.068-0.483,0.204-0.633s0.38-0.285,0.732-0.409
		c0.571-0.201,1.004-0.485,1.298-0.85c0.294-0.365,0.714-1.145,1.259-2.34l1.859-4.074c0.686-1.494,1.145-2.612,1.378-3.355
		c0.232-0.742,0.354-1.47,0.362-2.182c0.009-0.756,0.055-1.281,0.139-1.575c0.083-0.295,0.27-0.582,0.56-0.864
		c0.606-0.614,1.38-0.922,2.32-0.922c0.888,0,1.736,0.347,2.544,1.041C80.89,69.485,82.525,72.25,84.669,76.829z M75.494,78.489
		h2.584c0.475,0,0.712-0.105,0.712-0.316c0-0.289-0.33-1.002-0.989-2.135c-0.299-0.519-0.527-0.866-0.686-1.042
		s-0.325-0.264-0.501-0.264c-0.316,0-0.58,0.295-0.791,0.884c-0.035,0.078-0.163,0.391-0.382,0.936
		c-0.369,0.896-0.554,1.433-0.554,1.608C74.887,78.38,75.089,78.489,75.494,78.489z"/>
	<path fill="#FFFFFF" d="M98.578,78.371c-0.334,0-0.547,0.102-0.641,0.304c-0.092,0.202-0.139,0.672-0.139,1.41
		c0,1.116,0.07,1.986,0.211,2.61c0.045,0.176,0.111,0.313,0.199,0.409s0.254,0.215,0.5,0.355c0.527,0.29,0.791,0.672,0.791,1.146
		c0,0.58-0.367,0.991-1.1,1.233c-0.734,0.241-1.977,0.362-3.725,0.362c-3.252,0-4.878-0.615-4.878-1.846
		c0-0.211,0.048-0.38,0.145-0.508c0.097-0.127,0.316-0.305,0.66-0.533c0.387-0.255,0.648-0.557,0.785-0.903
		c0.135-0.348,0.23-0.947,0.283-1.8c0.043-0.624,0.064-2.861,0.064-6.711c0-1.221-0.061-2.052-0.184-2.491s-0.387-0.76-0.791-0.962
		c-0.387-0.186-0.646-0.354-0.778-0.508c-0.132-0.154-0.198-0.354-0.198-0.6c0-0.325,0.126-0.609,0.376-0.851
		c0.25-0.242,0.6-0.42,1.047-0.534c0.379-0.097,0.896-0.145,1.557-0.145c0.289,0,1.016,0.044,2.176,0.131
		c0.219,0.019,0.566,0.027,1.041,0.027c0.791,0,1.846-0.053,3.164-0.158c0.834-0.062,1.42-0.093,1.754-0.093
		c1.881,0,3.436,0.453,4.666,1.358c1.107,0.816,1.662,1.951,1.662,3.4c0,0.81-0.193,1.545-0.58,2.209
		c-0.387,0.663-0.92,1.162-1.596,1.496c-0.281,0.141-0.422,0.308-0.422,0.501c0,0.255,0.215,0.462,0.646,0.62
		c0.922,0.334,1.6,0.839,2.029,1.516c0.432,0.677,0.738,1.714,0.924,3.111c0.078,0.58,0.193,0.956,0.342,1.127
		c0.15,0.172,0.496,0.336,1.041,0.494c0.168,0.053,0.309,0.165,0.422,0.337c0.115,0.171,0.172,0.362,0.172,0.573
		c0,0.272-0.105,0.547-0.316,0.824c-0.211,0.276-0.482,0.494-0.816,0.652c-0.738,0.343-1.75,0.514-3.033,0.514
		c-1.713,0-2.939-0.452-3.678-1.357c-0.334-0.404-0.617-0.914-0.85-1.529c-0.234-0.615-0.508-1.573-0.824-2.874
		c-0.203-0.835-0.459-1.424-0.771-1.767S99.158,78.397,98.578,78.371z M97.813,71.647l-0.145,3.072c0,0.025,0,0.065,0,0.118
		c0,0.316,0.047,0.527,0.139,0.633s0.279,0.158,0.561,0.158c0.773,0,1.336-0.2,1.688-0.6c0.352-0.4,0.527-1.039,0.527-1.919
		c0-1.695-0.604-2.544-1.807-2.544c-0.344,0-0.584,0.079-0.725,0.237S97.83,71.243,97.813,71.647z"/>
	<path fill="#FFFFFF" d="M115.559,67.942h6.947c0.748-0.025,1.428-0.127,2.045-0.303c0.264-0.07,0.496-0.105,0.697-0.105
		c0.713,0,1.404,0.527,2.076,1.582c0.674,1.055,1.01,2.141,1.01,3.256c0,0.766-0.234,1.323-0.699,1.675
		c-0.352,0.264-0.773,0.396-1.266,0.396c-0.467,0-0.869-0.13-1.213-0.389c-0.342-0.26-0.682-0.688-1.016-1.285
		c-0.289-0.545-0.518-0.901-0.686-1.068c-0.166-0.167-0.369-0.25-0.605-0.25c-0.326,0-0.559,0.136-0.699,0.408
		s-0.211,0.721-0.211,1.345v7.383c0,0.756,0.08,1.306,0.238,1.647c0.158,0.344,0.455,0.607,0.896,0.791
		c0.475,0.203,0.797,0.394,0.969,0.574c0.17,0.18,0.256,0.428,0.256,0.744c0,0.633-0.428,1.104-1.285,1.411
		s-2.174,0.462-3.947,0.462c-2.182,0-3.797-0.181-4.852-0.541c-0.889-0.299-1.332-0.782-1.332-1.45c0-0.36,0.158-0.642,0.475-0.844
		c0.078-0.044,0.391-0.149,0.936-0.316c0.334-0.097,0.564-0.281,0.691-0.554c0.129-0.272,0.232-0.795,0.311-1.568
		c0.07-0.686,0.137-1.796,0.197-3.329c0.063-1.534,0.094-2.863,0.094-3.988c0-0.791-0.063-1.354-0.186-1.688
		s-0.326-0.501-0.605-0.501c-0.344,0-0.678,0.246-1.002,0.738c-0.59,0.896-1.074,1.49-1.451,1.779
		c-0.447,0.344-0.883,0.515-1.305,0.515c-0.475,0-0.867-0.178-1.174-0.534c-0.309-0.355-0.461-0.811-0.461-1.364
		c0-0.545,0.123-1.145,0.369-1.8c0.246-0.654,0.574-1.259,0.988-1.813c0.668-0.896,1.326-1.345,1.979-1.345
		c0.174,0,0.377,0.026,0.605,0.079c0.475,0.097,0.863,0.163,1.166,0.197C114.814,67.926,115.164,67.942,115.559,67.942z"/>
</g>
<g>
</g>
<g>
</g>
<g>
</g>
<g>
</g>
<g>
</g>
<g>
</g>
<g>
</g>
<g>
</g>
<g>
</g>
<g>
</g>
<g>
</g>
<g>
</g>
<g>
</g>
<g>
</g>
<g>
</g>
</svg>
