<?xml version="1.0" encoding="utf-8"?>
<!-- Generator: Adobe Illustrator 16.0.0, SVG Export Plug-In . SVG Version: 6.00 Build 0)  -->
<!DOCTYPE svg PUBLIC "-//W3C//DTD SVG 1.1//EN" "http://www.w3.org/Graphics/SVG/1.1/DTD/svg11.dtd">
<svg version="1.1" id="圖層_1" xmlns="http://www.w3.org/2000/svg" xmlns:xlink="http://www.w3.org/1999/xlink" x="0px" y="0px"
	 width="178.3px" height="120px" viewBox="0 0 178.3 120" enable-background="new 0 0 178.3 120" xml:space="preserve">
<g>
</g>
<g>
	<path fill="#F41414" d="M50.945,25.927l-1.296,2.769c-3.012-0.706-6.06-1.663-9.144-2.871v1.299H28.463v-1.367
		c-2.844,1.196-5.856,2.199-9.036,3.008l-1.62-2.529c7.26-1.777,12.618-4.05,16.074-6.819l3.6,0.837
		c-0.252,0.296-0.474,0.519-0.666,0.667C40.235,22.97,44.945,24.64,50.945,25.927z M47.579,37.582H21.264v-9.041h26.315V37.582z
		 M45.995,50.314h-3.24v-1.248H26.25v1.248h-3.366V39.12h23.111V50.314z M32.765,35.138v-4.102h-8.297v4.102H32.765z M31.146,33.412
		l-2.322,1.401c-0.888-0.706-1.908-1.396-3.06-2.068l2.286-1.47C28.806,31.675,29.837,32.387,31.146,33.412z M42.755,42.931v-1.436
		H26.25v1.436H42.755z M42.755,46.64v-1.538H26.25v1.538H42.755z M37.931,24.696c-1.98-1.048-3.186-1.697-3.618-1.948
		c-1.008,0.718-2.16,1.367-3.456,1.948H37.931z M44.339,35.138v-4.102h-8.333v4.102H44.339z M42.935,32.677
		c-0.816,0.649-1.848,1.328-3.096,2.034l-2.286-1.47c1.44-0.866,2.448-1.498,3.024-1.897L42.935,32.677z"/>
	<path fill="#F41414" d="M83.938,44.794H66.784l1.224,1.008c-2.82,1.926-6.528,3.538-11.124,4.836l-1.818-2.495
		c3.636-0.979,6.588-2.096,8.856-3.35h-5.31V29.499h25.325V44.794z M83.127,27.499H59.422v-6.785h23.705V27.499z M80.698,33.874
		v-1.965H61.924v1.965H80.698z M80.698,38.112v-2H61.924v2H80.698z M80.698,42.418v-2.034H61.924v2.034H80.698z M79.87,25.158v-2
		H62.806v2H79.87z M87.538,48.144l-1.62,2.598c-3.252-1.253-6.84-2.199-10.764-2.837l1.512-2.598
		C80.806,45.945,84.43,46.891,87.538,48.144z"/>
	<path fill="#F41414" d="M124.525,31.806l-1.996,2.478c-3.121-1.458-5.594-2.951-7.416-4.478v2.341h-13.932v-1.948
		c-2.725,1.823-5.221,3.185-7.488,4.084l-1.908-2.444c2.58-1.082,4.619-2.119,6.119-3.11c-1.078-0.752-2.346-1.498-3.797-2.239
		l2.105-2.239c1.68,0.935,3.078,1.817,4.193,2.649c1.344-1.071,2.479-2.318,3.402-3.743h-9.342v-2.734h12.979v2.734
		c-1.105,2.21-2.832,4.29-5.184,6.238h12.418c-2.734-2.506-4.75-5.508-6.047-9.006l2.881-0.837c0.49,1.208,1.092,2.364,1.799,3.469
		c1.477-1.06,2.682-2.25,3.617-3.572l2.646,1.641c-1.152,1.572-2.664,3.02-4.535,4.341c0.42,0.524,0.924,1.048,1.512,1.572
		c1.477-1.082,2.939-2.518,4.393-4.307l2.572,1.624c-1.043,1.527-2.531,3.054-4.463,4.58
		C120.207,29.812,122.031,30.78,124.525,31.806z M123.752,49.682H92.559v-2.82h9.469c-0.516-0.945-1.129-1.914-1.836-2.905
		l2.357-1.401h-5.346v-8.34h21.941v8.34h-5.508l2.484,1.333c-0.42,0.957-0.936,1.948-1.549,2.974h9.18V49.682z M115.779,39.855
		v-2.974h-15.191v2.974H115.779z M112.988,42.555h-9.773c0.947,1.527,1.758,2.962,2.43,4.307h5.311
		C111.746,45.449,112.424,44.014,112.988,42.555z"/>
	<path fill="#F41414" d="M161.155,48.144l-2.574,2.324c-7.02-5.811-11.495-12.162-13.428-19.055
		c-2.447,7.964-7.199,14.23-14.255,18.799l-2.395-2.444c3.18-1.994,5.925-4.42,8.235-7.28c2.31-2.859,4.07-5.996,5.282-9.408
		s1.818-5.643,1.818-6.691l-0.108-0.701h-4.464v-3.11h7.56c0.324,6.722,1.723,12.177,4.194,16.363
		C153.493,41.128,156.871,44.862,161.155,48.144z"/>
</g>
<g>
</g>
<g>
	<path fill="#F41414" d="M50.623,73.704v6.051c0,1.363,0.119,2.242,0.356,2.637c0.29,0.467,0.901,0.699,1.833,0.699
		c1.002,0,1.793-0.22,2.373-0.659s0.984-1.125,1.213-2.057c0.132-0.571,0.431-0.856,0.896-0.856s0.846,0.208,1.14,0.626
		c0.294,0.417,0.442,0.96,0.442,1.628c0,1.09-0.404,2.254-1.213,3.494c-0.255,0.395-0.479,0.665-0.672,0.811
		c-0.193,0.145-0.426,0.217-0.699,0.217l-2.927-0.355H44.15c-0.606,0-1.033-0.07-1.279-0.211c-0.36-0.202-0.541-0.505-0.541-0.91
		c0-0.245,0.06-0.428,0.178-0.547c0.119-0.118,0.407-0.287,0.864-0.508c0.501-0.236,0.822-0.57,0.962-1.002
		c0.114-0.359,0.171-1.41,0.171-3.15c0-0.809-0.022-1.973-0.066-3.494c-0.044-1.458-0.07-2.557-0.079-3.295
		c0-0.703-0.055-1.185-0.165-1.444c-0.11-0.259-0.34-0.445-0.692-0.56c-0.58-0.202-0.949-0.365-1.107-0.488
		c-0.281-0.22-0.422-0.47-0.422-0.752c0-0.641,0.532-1.129,1.595-1.463c0.905-0.29,2.118-0.436,3.639-0.436
		c1.705,0,2.979,0.089,3.823,0.264c1.09,0.238,1.635,0.713,1.635,1.424c0,0.291-0.072,0.506-0.218,0.646
		c-0.145,0.141-0.499,0.33-1.061,0.566c-0.334,0.15-0.545,0.405-0.633,0.766S50.623,72.491,50.623,73.704z"/>
	<path fill="#F41414" d="M69.304,67.573c2.259,0,4.232,0.646,5.919,1.938c1.143,0.888,2.07,2.039,2.782,3.454
		c0.694,1.406,1.042,2.813,1.042,4.219c0,2.074-0.686,3.929-2.057,5.563c-1.16,1.389-2.676,2.386-4.548,2.993
		c-1.151,0.369-2.307,0.553-3.467,0.553c-1.521,0-2.975-0.316-4.364-0.949c-1.679-0.764-2.993-1.92-3.942-3.467
		c-0.923-1.494-1.384-3.142-1.384-4.943c0-2.092,0.593-3.938,1.78-5.537c1.055-1.424,2.474-2.47,4.258-3.139
		C66.518,67.803,67.845,67.573,69.304,67.573z M68.052,71.357c-0.738,0-1.323,0.329-1.753,0.989
		c-0.334,0.492-0.501,1.076-0.501,1.753c0,0.993,0.202,2.143,0.606,3.447c0.404,1.306,0.914,2.464,1.529,3.474
		c0.272,0.432,0.608,0.774,1.009,1.029c0.399,0.255,0.806,0.382,1.219,0.382c0.668,0,1.207-0.251,1.615-0.751
		c0.409-0.502,0.613-1.16,0.613-1.979c0-1.063-0.171-2.21-0.514-3.44s-0.787-2.28-1.332-3.151c-0.334-0.535-0.721-0.957-1.16-1.266
		C68.944,71.538,68.5,71.375,68.052,71.357z"/>
	<path fill="#F41414" d="M90.332,67.573c1.15,0,2.236,0.163,3.256,0.488c0.457,0.149,0.77,0.225,0.936,0.225
		c0.176,0,0.545-0.102,1.107-0.304c0.186-0.062,0.375-0.093,0.568-0.093c0.492,0,0.961,0.291,1.41,0.871
		c0.721,0.932,1.08,1.951,1.08,3.059c0,0.756-0.189,1.366-0.572,1.832s-0.887,0.699-1.51,0.699c-0.51,0-1.012-0.186-1.504-0.555
		c-0.148-0.113-0.514-0.527-1.094-1.238c-0.967-1.188-2.078-1.78-3.336-1.78c-1.142,0-2.049,0.418-2.721,1.253
		c-0.673,0.835-1.009,1.96-1.009,3.375c0,2.101,0.536,3.889,1.608,5.365c0.404,0.536,0.888,0.965,1.45,1.285
		c0.563,0.321,1.121,0.481,1.674,0.481c0.457,0,0.834-0.151,1.129-0.455c0.293-0.303,0.441-0.692,0.441-1.167
		c0-0.422-0.123-0.72-0.369-0.896c-0.098-0.069-0.188-0.111-0.271-0.125c-0.082-0.013-0.336-0.02-0.758-0.02
		c-0.377,0-0.691-0.121-0.941-0.362c-0.252-0.242-0.377-0.548-0.377-0.917c0-0.729,0.484-1.247,1.451-1.555
		c1.063-0.334,2.289-0.502,3.678-0.502c1.484,0,2.732,0.154,3.744,0.462c0.957,0.299,1.438,0.84,1.438,1.622
		c0,0.316-0.111,0.591-0.33,0.823c-0.221,0.233-0.506,0.372-0.857,0.415c-0.307,0.045-0.508,0.112-0.6,0.205
		c-0.092,0.092-0.188,0.318-0.283,0.679c-0.379,1.397-1.117,2.566-2.215,3.507c-0.756,0.642-1.668,1.143-2.736,1.503
		c-1.066,0.36-2.189,0.54-3.367,0.54c-1.925,0-3.692-0.443-5.3-1.331c-1.652-0.905-2.909-2.171-3.771-3.797
		c-0.721-1.354-1.081-2.816-1.081-4.39c0-1.591,0.431-3.103,1.292-4.535c0.914-1.538,2.193-2.725,3.836-3.561
		C86.86,67.942,88.495,67.573,90.332,67.573z"/>
	<path fill="#F41414" d="M107.273,67.666c1.002,0,1.945,0.088,2.834,0.264c1.195,0.237,1.793,0.743,1.793,1.517
		c0,0.255-0.059,0.445-0.178,0.573c-0.119,0.127-0.42,0.314-0.902,0.56c-0.406,0.203-0.672,0.646-0.799,1.332
		s-0.191,2.021-0.191,4.008c0,3.357,0.084,5.437,0.252,6.236c0.061,0.255,0.154,0.45,0.283,0.586
		c0.127,0.137,0.35,0.283,0.666,0.441c0.58,0.264,0.869,0.646,0.869,1.147c0,0.703-0.537,1.187-1.607,1.45
		c-1.16,0.281-2.58,0.422-4.26,0.422c-2.865,0-4.297-0.545-4.297-1.635c0-0.396,0.281-0.765,0.844-1.107
		c0.43-0.264,0.686-0.624,0.764-1.081c0.168-1.002,0.252-3.129,0.252-6.381c0-2.25-0.115-3.691-0.344-4.324
		c-0.123-0.36-0.418-0.686-0.883-0.976c-0.361-0.237-0.604-0.436-0.725-0.594c-0.125-0.158-0.186-0.359-0.186-0.605
		c0-0.378,0.182-0.68,0.547-0.903c0.365-0.225,1.01-0.424,1.932-0.601C105.035,67.776,106.148,67.666,107.273,67.666z"/>
	<path fill="#F41414" d="M120.049,68.575l6.564,5.748c0.615,0.537,1.059,0.805,1.332,0.805c0.457,0,0.686-0.488,0.686-1.463
		c0-1.107-0.066-1.863-0.197-2.268c-0.133-0.404-0.41-0.708-0.832-0.91c-0.342-0.167-0.584-0.345-0.725-0.534
		c-0.141-0.188-0.211-0.433-0.211-0.731c0-0.738,0.506-1.213,1.516-1.424c0.414-0.088,1.135-0.132,2.162-0.132
		c1.328,0,2.246,0.079,2.756,0.237c0.809,0.246,1.213,0.712,1.213,1.397c0,0.571-0.33,1.002-0.988,1.292
		c-0.264,0.114-0.443,0.216-0.541,0.303c-0.096,0.089-0.18,0.221-0.25,0.396c-0.238,0.58-0.361,1.679-0.369,3.295v4.299
		c0,0.658,0.004,1.56,0.014,2.702c0.008,1.547-0.084,2.663-0.277,3.349c-0.238,0.853-0.668,1.279-1.293,1.279
		c-0.271,0-0.506-0.058-0.705-0.172c-0.197-0.114-0.525-0.378-0.982-0.791l-7.816-7c-0.545-0.492-0.998-0.738-1.359-0.738
		c-0.535,0-0.803,0.742-0.803,2.228c0,1.222,0.068,2.057,0.203,2.505c0.137,0.448,0.416,0.777,0.838,0.988
		c0.588,0.291,0.883,0.669,0.883,1.135c0,1.222-1.314,1.832-3.941,1.832c-1.188,0-2.107-0.156-2.762-0.468
		c-0.654-0.313-0.982-0.754-0.982-1.325c0-0.299,0.061-0.522,0.184-0.672s0.4-0.352,0.832-0.607c0.412-0.245,0.662-0.681,0.75-1.305
		c0.15-1.134,0.225-2.764,0.225-4.891c0-2.268-0.131-3.92-0.395-4.957c-0.098-0.378-0.221-0.66-0.369-0.844
		c-0.15-0.186-0.396-0.36-0.738-0.527c-0.396-0.193-0.67-0.383-0.824-0.567s-0.23-0.409-0.23-0.673c0-0.844,0.725-1.375,2.174-1.595
		c0.492-0.07,1.354-0.105,2.584-0.105c0.703,0,1.217,0.055,1.537,0.165C119.229,67.94,119.609,68.189,120.049,68.575z"/>
</g>
<g>
</g>
<g>
</g>
<g>
</g>
<g>
</g>
<g>
</g>
<g>
</g>
<g>
</g>
<g>
</g>
<g>
</g>
<g>
</g>
<g>
</g>
<g>
</g>
<g>
</g>
<g>
</g>
<g>
</g>
</svg>
