<?xml version="1.0" encoding="utf-8"?>
<!-- Generator: Adobe Illustrator 16.0.0, SVG Export Plug-In . SVG Version: 6.00 Build 0)  -->
<!DOCTYPE svg PUBLIC "-//W3C//DTD SVG 1.1//EN" "http://www.w3.org/Graphics/SVG/1.1/DTD/svg11.dtd">
<svg version="1.1" id="圖層_1" xmlns="http://www.w3.org/2000/svg" xmlns:xlink="http://www.w3.org/1999/xlink" x="0px" y="0px"
	 width="178.3px" height="120px" viewBox="0 0 178.3 120" enable-background="new 0 0 178.3 120" xml:space="preserve">
<g>
</g>
<g>
	<path fill="#F41414" d="M50.945,25.927l-1.296,2.769c-3.012-0.706-6.06-1.663-9.144-2.871v1.299H28.463v-1.367
		c-2.844,1.196-5.856,2.199-9.036,3.008l-1.62-2.529c7.26-1.777,12.618-4.05,16.074-6.819l3.6,0.837
		c-0.252,0.296-0.474,0.519-0.666,0.667C40.235,22.97,44.945,24.64,50.945,25.927z M47.579,37.582H21.264v-9.041h26.315V37.582z
		 M45.995,50.314h-3.24v-1.248H26.25v1.248h-3.366V39.12h23.111V50.314z M32.765,35.138v-4.102h-8.297v4.102H32.765z M31.146,33.412
		l-2.322,1.401c-0.888-0.706-1.908-1.396-3.06-2.068l2.286-1.47C28.806,31.675,29.837,32.387,31.146,33.412z M42.755,42.931v-1.436
		H26.25v1.436H42.755z M42.755,46.64v-1.538H26.25v1.538H42.755z M37.931,24.696c-1.98-1.048-3.186-1.697-3.618-1.948
		c-1.008,0.718-2.16,1.367-3.456,1.948H37.931z M44.339,35.138v-4.102h-8.333v4.102H44.339z M42.935,32.677
		c-0.816,0.649-1.848,1.328-3.096,2.034l-2.286-1.47c1.44-0.866,2.448-1.498,3.024-1.897L42.935,32.677z"/>
	<path fill="#F41414" d="M83.938,44.794H66.784l1.224,1.008c-2.82,1.926-6.528,3.538-11.124,4.836l-1.818-2.495
		c3.636-0.979,6.588-2.096,8.856-3.35h-5.31V29.499h25.325V44.794z M83.127,27.499H59.422v-6.785h23.705V27.499z M80.698,33.874
		v-1.965H61.924v1.965H80.698z M80.698,38.112v-2H61.924v2H80.698z M80.698,42.418v-2.034H61.924v2.034H80.698z M79.87,25.158v-2
		H62.806v2H79.87z M87.538,48.144l-1.62,2.598c-3.252-1.253-6.84-2.199-10.764-2.837l1.512-2.598
		C80.806,45.945,84.43,46.891,87.538,48.144z"/>
	<path fill="#F41414" d="M124.148,44.093h-7.254v2.974c0,0.9-0.275,1.663-0.828,2.29c-0.553,0.626-1.709,0.94-3.475,0.94
		c-0.744,0-1.877-0.029-3.4-0.085l-0.846-2.769c2.459,0.034,3.949,0.023,4.473-0.034c0.521-0.057,0.783-0.313,0.783-0.769v-2.546
		h-21.6v-2.529h21.6v-1.077h3.293v1.077h7.254V44.093z M123.789,39.582l-2.736,1.504c-0.684-0.82-1.201-1.396-1.549-1.726
		c-10.355,0.559-18.959,0.792-25.811,0.701l-0.846-2.478c1.775,0.034,3.828,0.051,6.156,0.051c3.084,0,5.566-0.028,7.451-0.085
		v-1.863h-11.25V25.568h11.25v-1.641H92.451v-2.41h14.004v-1.726h3.168v1.726h13.787v2.41h-13.787v1.641h11.393v10.117h-0.953
		C121.455,37.03,122.695,38.329,123.789,39.582z M106.49,47.733l-2.465,2.17c-1.32-0.935-3.229-1.988-5.725-3.162l2.449-2.17
		C102.957,45.552,104.871,46.605,106.49,47.733z M106.455,29.601v-1.709h-8.027v1.709H106.455z M106.455,33.275v-1.572h-8.027v1.572
		H106.455z M117.848,29.601v-1.709h-8.225v1.709H117.848z M117.848,33.275v-1.572h-8.225v1.572H117.848z M117.92,35.685h-8.297v1.76
		c3.383-0.103,5.879-0.245,7.488-0.427c-0.277-0.319-0.512-0.552-0.703-0.701L117.92,35.685z"/>
	<path fill="#F41414" d="M161.011,49.511h-27.053c-1.068,0-1.893-0.322-2.475-0.965c-0.582-0.644-0.873-1.479-0.873-2.504V23.329
		h-1.71v-2.683h31.715v2.683h-26.801v22.507c0,0.228,0.11,0.45,0.333,0.667c0.222,0.217,0.452,0.325,0.692,0.325h26.171V49.511z
		 M146.161,44.76h-10.224v-9.741h10.224V44.76z M155.377,33.207h-16.379V25.26h16.379V33.207z M143.102,42.094V37.65h-4.05v4.443
		H143.102z M152.102,30.609v-2.717h-9.773v2.717H152.102z M158.689,44.76h-10.386v-9.741h10.386V44.76z M155.629,42.06V37.65h-4.266
		v4.409H155.629z"/>
</g>
<g>
</g>
<g>
	<path fill="#F41414" d="M46.708,80.48l-1.582,3.546c-0.272,0.599-0.492,1-0.659,1.207c-0.167,0.206-0.352,0.31-0.554,0.31
		c-0.193,0-0.365-0.083-0.514-0.251c-0.097-0.105-0.319-0.491-0.666-1.16c-0.348-0.667-0.635-1.261-0.864-1.779l-1.74-3.916
		c-0.237-0.544-0.488-0.816-0.751-0.816c-0.281,0-0.435,0.232-0.461,0.698c-0.062,1.037-0.092,1.995-0.092,2.874
		c0,0.914,0.044,1.534,0.132,1.859c0.062,0.193,0.143,0.334,0.244,0.422c0.101,0.088,0.375,0.246,0.824,0.475
		c0.29,0.149,0.435,0.408,0.435,0.777c0,0.984-1.261,1.477-3.784,1.477c-2.127,0-3.19-0.479-3.19-1.438
		c0-0.245,0.055-0.424,0.165-0.533c0.11-0.11,0.394-0.274,0.851-0.494c0.29-0.133,0.485-0.313,0.587-0.541
		c0.101-0.229,0.187-0.672,0.257-1.332c0.079-0.702,0.154-1.856,0.224-3.46c0.07-1.604,0.105-2.978,0.105-4.12
		c0-1.433-0.11-2.403-0.33-2.914c-0.079-0.175-0.169-0.307-0.271-0.395s-0.292-0.202-0.573-0.344
		c-0.624-0.298-0.936-0.686-0.936-1.16c0-0.307,0.116-0.588,0.349-0.844c0.233-0.254,0.543-0.435,0.93-0.54
		c0.387-0.114,0.903-0.213,1.549-0.297c0.646-0.083,1.193-0.125,1.642-0.125c1.125,0,1.92,0.093,2.386,0.276
		c0.229,0.089,0.409,0.207,0.541,0.356s0.321,0.457,0.567,0.923l2.742,5.049c0.299,0.555,0.505,0.893,0.62,1.016
		s0.272,0.185,0.475,0.185c0.176,0,0.332-0.065,0.468-0.198c0.136-0.131,0.297-0.377,0.481-0.738l1.859-3.625
		c0.229-0.466,0.378-0.769,0.448-0.91c0.431-0.878,0.857-1.463,1.279-1.753c0.536-0.378,1.512-0.567,2.927-0.567
		c2.487,0,3.731,0.567,3.731,1.701c0,0.255-0.048,0.459-0.145,0.613c-0.097,0.153-0.294,0.341-0.593,0.561
		c-0.404,0.308-0.659,0.751-0.765,1.331c-0.202,1.213-0.303,2.689-0.303,4.43c0,2.241,0.105,4.206,0.316,5.894
		c0.053,0.413,0.134,0.694,0.244,0.844c0.109,0.149,0.393,0.373,0.85,0.672c0.316,0.211,0.475,0.492,0.475,0.844
		c0,0.615-0.409,1.051-1.226,1.305c-0.422,0.141-0.866,0.233-1.332,0.277s-1.182,0.066-2.149,0.066
		c-1.485,0-2.593-0.105-3.322-0.316c-0.809-0.238-1.213-0.642-1.213-1.213c0-0.211,0.053-0.385,0.158-0.521
		c0.105-0.136,0.378-0.384,0.817-0.744c0.229-0.186,0.384-0.541,0.468-1.068s0.125-1.424,0.125-2.689
		c0-0.703-0.033-1.164-0.099-1.385c-0.065-0.219-0.204-0.329-0.415-0.329c-0.246,0-0.483,0.169-0.712,0.508
		C47.507,78.795,47.165,79.47,46.708,80.48z"/>
	<path fill="#F41414" d="M69.673,80.032h-6.196c-0.272,0-0.409,0.119-0.409,0.355c0,0.572,0.31,1.11,0.929,1.615
		c0.62,0.506,1.286,0.758,1.998,0.758c0.422,0,0.89-0.081,1.404-0.243c0.515-0.163,0.938-0.362,1.272-0.601
		c0.299-0.211,0.536-0.316,0.712-0.316c0.229,0,0.453,0.142,0.672,0.422c0.22,0.282,0.33,0.572,0.33,0.871
		c0,0.633-0.396,1.243-1.187,1.832c-1.397,1.046-3.01,1.568-4.838,1.568c-1.846,0-3.393-0.535-4.641-1.607
		c-0.606-0.527-1.107-1.165-1.503-1.912c-0.519-0.993-0.778-2.039-0.778-3.138c0-1.477,0.448-2.804,1.345-3.981
		c0.773-1.02,1.758-1.779,2.953-2.281c0.896-0.377,1.868-0.566,2.914-0.566c1.67,0,3.089,0.475,4.258,1.424
		c0.589,0.475,1.063,1.037,1.424,1.688c0.413,0.738,0.62,1.459,0.62,2.162c0,0.571-0.119,1.039-0.356,1.404
		C70.359,79.85,70.051,80.032,69.673,80.032z M63.82,77.567h1.332c0.563,0,0.844-0.26,0.844-0.778c0-0.475-0.136-0.861-0.409-1.16
		s-0.628-0.448-1.068-0.448c-0.492,0-0.879,0.193-1.16,0.58c-0.264,0.36-0.396,0.725-0.396,1.094c0,0.264,0.063,0.449,0.191,0.555
		S63.503,77.567,63.82,77.567z"/>
	<path fill="#F41414" d="M78.203,72.899c0.501,0,0.751,0.356,0.751,1.068c0,0.009,0,0.084,0,0.225
		c-0.009,0.141-0.013,0.255-0.013,0.342c0,0.475,0.141,0.713,0.422,0.713c0.149,0,0.382-0.189,0.699-0.567
		c0.475-0.545,1.072-0.978,1.793-1.299c0.721-0.32,1.459-0.481,2.215-0.481c1.468,0,2.487,0.537,3.059,1.609
		c0.22,0.395,0.4,0.593,0.541,0.593c0.097,0,0.325-0.176,0.686-0.527c1.142-1.116,2.438-1.675,3.89-1.675
		c1.133,0,2.061,0.313,2.781,0.937c0.756,0.65,1.135,1.626,1.135,2.927c0,0.281-0.01,0.756-0.027,1.424
		c-0.018,0.229-0.025,0.919-0.025,2.07c0,0.738-0.006,1.257-0.014,1.555c-0.01,0.186-0.014,0.316-0.014,0.396
		c0,0.563,0.176,1.055,0.527,1.477c0.211,0.255,0.34,0.424,0.389,0.507c0.049,0.084,0.072,0.196,0.072,0.337
		c0,1.125-1.322,1.688-3.967,1.688c-1.17,0-2.113-0.142-2.828-0.422c-0.717-0.281-1.076-0.65-1.076-1.107
		c0-0.176,0.024-0.311,0.073-0.402c0.048-0.093,0.217-0.336,0.508-0.732c0.272-0.359,0.409-1.56,0.409-3.599
		c0-1.187-0.084-2.013-0.25-2.479c-0.194-0.554-0.58-0.831-1.161-0.831c-0.29,0-0.547,0.091-0.771,0.271
		c-0.225,0.181-0.372,0.407-0.442,0.679c-0.079,0.316-0.123,1.16-0.132,2.531c0.026,1.477,0.073,2.373,0.138,2.689
		c0.066,0.316,0.288,0.757,0.666,1.318c0.088,0.133,0.132,0.3,0.132,0.502c0,1.046-1.367,1.568-4.1,1.568
		c-1.644,0-2.751-0.123-3.322-0.369c-0.457-0.193-0.686-0.536-0.686-1.028c0-0.22,0.028-0.373,0.085-0.462
		c0.057-0.087,0.253-0.289,0.587-0.605c0.193-0.186,0.318-0.358,0.376-0.521c0.057-0.162,0.099-0.459,0.125-0.89
		c0.062-0.967,0.092-1.942,0.092-2.927c0-1.723-0.439-2.584-1.318-2.584c-0.659,0-1.05,0.369-1.173,1.107
		c-0.105,0.694-0.158,1.688-0.158,2.979c0,0.967,0.02,1.6,0.06,1.898c0.039,0.299,0.147,0.611,0.323,0.937
		c0.211,0.378,0.316,0.686,0.316,0.922c0,0.572-0.4,0.968-1.2,1.188c-0.87,0.236-1.828,0.355-2.874,0.355
		c-1.354,0-2.347-0.107-2.979-0.323c-0.633-0.215-0.949-0.556-0.949-1.021c0-0.176,0.042-0.325,0.125-0.448s0.275-0.316,0.574-0.58
		c0.396-0.36,0.624-0.857,0.686-1.49c0.097-1.089,0.145-2.219,0.145-3.388c0-0.835-0.042-1.417-0.125-1.747
		c-0.084-0.329-0.262-0.595-0.534-0.797c-0.264-0.202-0.433-0.356-0.508-0.462s-0.112-0.251-0.112-0.435
		c0-0.589,0.461-1.055,1.384-1.398C75.43,73.313,77.096,72.909,78.203,72.899z"/>
	<path fill="#F41414" d="M105.02,68.733l-0.172,5.143c0,0.123,0,0.22,0,0.289c0,0.177,0.057,0.264,0.172,0.264
		c0.061,0,0.236-0.118,0.527-0.355c1.027-0.844,2.162-1.266,3.4-1.266c1.23,0,2.316,0.444,3.256,1.332
		c1.178,1.116,1.768,2.57,1.768,4.363c0,2.558-0.953,4.602-2.861,6.131c-1.371,1.107-2.979,1.66-4.824,1.66
		c-0.914,0-1.738-0.116-2.473-0.349c-0.734-0.233-1.535-0.631-2.406-1.193c-0.131-0.079-0.236-0.118-0.316-0.118
		c-0.096,0-0.369,0.083-0.816,0.25c-0.229,0.088-0.498,0.132-0.805,0.132c-0.545,0-0.818-0.176-0.818-0.527
		c0-0.114,0.023-0.246,0.066-0.396c0.176-0.571,0.295-1.279,0.355-2.123c0.063-0.844,0.094-2.179,0.094-4.008v-3.639
		c0-0.904-0.035-1.472-0.105-1.7s-0.27-0.409-0.594-0.54c-0.457-0.193-0.773-0.385-0.949-0.574
		c-0.176-0.188-0.264-0.428-0.264-0.719c0-0.588,0.629-1.164,1.885-1.727c0.686-0.299,1.541-0.561,2.564-0.784
		c1.023-0.225,1.9-0.337,2.631-0.337C104.799,67.942,105.027,68.206,105.02,68.733z M106.152,76.776
		c-0.475,0-0.816,0.162-1.027,0.487c-0.168,0.246-0.252,0.747-0.252,1.503c0,2.065,0.07,3.459,0.211,4.18
		c0.123,0.668,0.498,1.002,1.121,1.002c0.643,0,1.129-0.272,1.463-0.818c0.334-0.544,0.502-1.335,0.502-2.373
		c0-1.529-0.281-2.645-0.844-3.348C107,77.005,106.609,76.794,106.152,76.776z"/>
	<path fill="#F41414" d="M127.102,80.032h-6.197c-0.271,0-0.408,0.119-0.408,0.355c0,0.572,0.311,1.11,0.93,1.615
		c0.619,0.506,1.285,0.758,1.996,0.758c0.422,0,0.891-0.081,1.404-0.243c0.516-0.163,0.939-0.362,1.273-0.601
		c0.299-0.211,0.535-0.316,0.711-0.316c0.229,0,0.453,0.142,0.672,0.422c0.221,0.282,0.33,0.572,0.33,0.871
		c0,0.633-0.395,1.243-1.186,1.832c-1.398,1.046-3.012,1.568-4.84,1.568c-1.846,0-3.393-0.535-4.641-1.607
		c-0.605-0.527-1.107-1.165-1.502-1.912c-0.52-0.993-0.777-2.039-0.777-3.138c0-1.477,0.447-2.804,1.344-3.981
		c0.773-1.02,1.758-1.779,2.953-2.281c0.896-0.377,1.867-0.566,2.914-0.566c1.67,0,3.09,0.475,4.258,1.424
		c0.59,0.475,1.064,1.037,1.424,1.688c0.414,0.738,0.619,1.459,0.619,2.162c0,0.571-0.117,1.039-0.355,1.404
		C127.787,79.85,127.479,80.032,127.102,80.032z M121.248,77.567h1.33c0.563,0,0.844-0.26,0.844-0.778
		c0-0.475-0.135-0.861-0.408-1.16c-0.271-0.299-0.629-0.448-1.068-0.448c-0.492,0-0.879,0.193-1.16,0.58
		c-0.264,0.36-0.395,0.725-0.395,1.094c0,0.264,0.064,0.449,0.191,0.555S120.932,77.567,121.248,77.567z"/>
	<path fill="#F41414" d="M135.395,72.887c0.465,0,0.748,0.065,0.85,0.198c0.102,0.131,0.191,0.553,0.27,1.266
		c0.045,0.387,0.18,0.58,0.41,0.58c0.174,0,0.342-0.128,0.5-0.383c0.703-1.099,1.621-1.648,2.756-1.648
		c0.799,0,1.453,0.26,1.965,0.778c0.244,0.255,0.447,0.582,0.605,0.982c0.158,0.399,0.238,0.784,0.238,1.153
		c0,0.413-0.098,0.837-0.291,1.272c-0.193,0.435-0.443,0.793-0.752,1.074c-0.563,0.536-1.252,0.804-2.068,0.804
		c-0.449,0-0.824-0.078-1.129-0.236c-0.303-0.158-0.701-0.479-1.191-0.963c-0.186-0.185-0.357-0.277-0.516-0.277
		c-0.246,0-0.406,0.139-0.48,0.416c-0.074,0.276-0.111,0.859-0.111,1.746c0,1.328,0.047,2.233,0.145,2.717
		c0.061,0.264,0.146,0.445,0.256,0.547c0.111,0.101,0.346,0.204,0.707,0.31c0.791,0.237,1.186,0.65,1.186,1.239
		c0,0.36-0.127,0.675-0.383,0.942c-0.254,0.269-0.592,0.446-1.014,0.534c-0.844,0.176-2.084,0.264-3.719,0.264
		c-1.555,0-2.738-0.137-3.547-0.408c-0.721-0.246-1.08-0.673-1.08-1.279c0-0.457,0.264-0.865,0.791-1.227
		c0.254-0.166,0.43-0.318,0.527-0.454c0.096-0.137,0.162-0.323,0.197-0.561c0.141-0.8,0.211-2.28,0.211-4.442
		c0-0.396-0.045-0.68-0.131-0.851c-0.09-0.172-0.264-0.31-0.527-0.415c-0.625-0.246-0.938-0.603-0.938-1.068
		c0-0.422,0.215-0.784,0.646-1.088c0.43-0.303,1.15-0.604,2.162-0.902C133.293,73.103,134.445,72.896,135.395,72.887z"/>
</g>
<g>
</g>
<g>
</g>
<g>
</g>
<g>
</g>
<g>
</g>
<g>
</g>
<g>
</g>
<g>
</g>
<g>
</g>
<g>
</g>
<g>
</g>
<g>
</g>
<g>
</g>
<g>
</g>
<g>
</g>
</svg>
