<?xml version="1.0" encoding="utf-8"?>
<!-- Generator: Adobe Illustrator 16.0.0, SVG Export Plug-In . SVG Version: 6.00 Build 0)  -->
<!DOCTYPE svg PUBLIC "-//W3C//DTD SVG 1.1//EN" "http://www.w3.org/Graphics/SVG/1.1/DTD/svg11.dtd">
<svg version="1.1" id="圖層_1" xmlns="http://www.w3.org/2000/svg" xmlns:xlink="http://www.w3.org/1999/xlink" x="0px" y="0px"
	 width="178.3px" height="120px" viewBox="0 0 178.3 120" enable-background="new 0 0 178.3 120" xml:space="preserve">
<g>
	<path fill="#F41414" d="M50.315,34.779H24v5.742c0,4.318-1.134,7.668-3.402,10.049l-2.61-2.205c0.78-0.695,1.449-1.749,2.007-3.162
		s0.837-3.663,0.837-6.75V32.01h29.483V34.779z M49.397,24.833h-5.49c-0.996,0.98-2.07,1.823-3.222,2.529
		c2.88,0.593,5.514,1.271,7.902,2.034l-1.224,2.136c-3.084-0.968-6.366-1.777-9.846-2.427c-4.608,1.652-9.312,2.41-14.111,2.273
		l-0.954-2.375c3.108,0.034,6.167-0.233,9.18-0.803c-2.148-0.387-4.56-0.678-7.236-0.872l1.476-2.068
		c3.456,0.308,7.134,0.798,11.034,1.47c1.127-0.615,2.082-1.248,2.862-1.897h-20.61v-2.82h13.68
		c-0.324-0.569-0.678-1.156-1.062-1.76l3.348-0.667c0.504,0.764,0.984,1.572,1.44,2.427h12.833V24.833z M50.387,49.682H23.928
		v-2.581h11.79v-2.307h-7.452v-2.529h7.452v-2.017h-6.48c-0.948,1.345-1.944,2.438-2.988,3.281l-2.034-2.444
		c1.74-1.344,3.102-3.201,4.085-5.571l3.06,0.872c-0.156,0.536-0.336,0.957-0.54,1.265h4.896v-2.102h3.348v2.102h9.666v2.598h-9.666
		v2.017h8.82v2.529h-8.82v2.307h11.322V49.682z"/>
	<path fill="#F41414" d="M69.593,50.314h-3.276v-1.777h-6.822v1.777h-3.204v-15.74h13.302V50.314z M66.317,45.7v-8.22h-6.822v8.22
		H66.317z M82.534,31.498H59.891V20.424h22.643V31.498z M79.222,28.729v-5.435H63.257v5.435H79.222z M86.08,50.314h-3.222v-1.777
		h-6.894v1.777h-3.24v-15.74H86.08V50.314z M82.858,45.734V37.48h-6.894v8.254H82.858z"/>
	<path fill="#F41414" d="M124.365,30.507l-1.729,2.803c-6.061-2.506-10.901-5.856-14.525-10.049
		c-3.588,3.942-8.453,7.201-14.598,9.775l-1.943-2.734c6.611-2.518,11.831-6.181,15.659-10.989l3.349,0.837
		c-0.084,0.239-0.24,0.507-0.469,0.803C113.757,25.055,118.509,28.24,124.365,30.507z M102.964,32.575
		c0,3.452-0.123,6.073-0.369,7.861c-0.246,1.789-0.909,3.532-1.989,5.229c-1.08,1.698-2.767,3.367-5.058,5.007L92.919,48.4
		c2.088-1.436,3.604-2.862,4.545-4.281c0.941-1.418,1.539-2.933,1.791-4.546c0.252-1.612,0.379-3.944,0.379-6.998H102.964z
		 M116.481,50.382h-3.42V32.643h3.42V50.382z"/>
	<path fill="#F41414" d="M133.669,42.333c-0.588,3.259-1.379,6.016-2.375,8.271l-2.719-1.401c0.853-2.005,1.578-4.517,2.178-7.537
		L133.669,42.333z M143.029,26.2c-2.855,4.592-5.76,8.289-8.711,11.091c1.225-0.205,2.676-0.507,4.355-0.906
		c-0.168-0.535-0.426-1.048-0.774-1.538l2.772-1.042c0.972,1.687,1.732,3.589,2.285,5.708l-2.699,1.042l-0.432-1.572
		c-3.205,0.764-6.602,1.441-10.188,2.034l-0.702-2.7c2.279-1.629,4.506-3.868,6.678-6.716l-5.742,0.735l-0.666-2.769
		c2.545-2.313,4.789-5.628,6.731-9.946l3.187,1.06c-1.607,3.213-3.517,5.987-5.724,8.323c1.392-0.068,2.867-0.268,4.429-0.598
		c0.862-1.128,1.625-2.318,2.285-3.572L143.029,26.2z M138.458,49.032l-2.916,0.872c-0.062-2.233-0.391-4.728-0.99-7.485
		l2.683-0.564C137.762,43.905,138.169,46.298,138.458,49.032z M143.21,47.528l-2.539,0.906c-0.383-1.994-1.073-4.164-2.069-6.511
		l2.683-0.667C142.063,43.205,142.707,45.295,143.21,47.528z M160.489,20.543c0,2.37-0.122,4.7-0.368,6.99s-0.447,3.686-0.604,4.187
		c-0.156,0.501-0.443,0.955-0.864,1.358c-0.42,0.405-1.089,0.664-2.007,0.778s-2.205,0.143-3.861,0.085l-1.17-3.145
		c0.588,0.023,1.891,0.034,3.906,0.034c0.469,0,0.792-0.273,0.973-0.82c0.18-0.547,0.383-2.688,0.611-6.426h-5.346
		c-0.59,5.047-3.192,8.801-7.813,11.262l-2.356-2.239c1.859-0.786,3.414-2.008,4.662-3.666c1.246-1.657,1.968-3.443,2.158-5.357
		h-5.938v-3.042L160.489,20.543L160.489,20.543z M159.607,50.417h-3.313v-1.709h-8.928v1.76h-3.275V35.976h15.516V50.417
		L159.607,50.417z M156.294,45.7v-6.716h-8.928V45.7H156.294z"/>
</g>
<g>
	<path fill="#F41414" d="M21.437,72.217c0-1.875-2.324-1.05-2.324-2.624c0-1,1.1-1.225,1.875-1.225c0.625,0,1.225,0.05,1.85,0.05
		c3.624,0,5.823-0.352,6.873-0.352c3.399,0,6.673,1.976,6.673,5.725c0,3.725-3.149,5.725-6.623,5.725c-0.75,0-1.5-0.125-2.175-0.125
		c-0.3,0-0.4,0.125-0.4,0.399v1.449c0.075,3.125,1.899,1.825,1.899,3.274c0,1.625-3.599,1.699-4.724,1.699
		c-1.05,0-4.749-0.025-4.749-1.65c0-1.373,1.825-0.523,1.825-2.573V72.217z M28.135,71.018c-0.975,0-0.95,0.301-0.95,0.801v3.748
		c0,0.524-0.225,1.101,1.125,1.101c1.649,0,2.299-1.25,2.299-2.774C30.61,72.316,29.81,71.018,28.135,71.018z"/>
	<path fill="#F41414" d="M38.987,73.616c0-3.874-1.899-2.274-1.899-3.824c0-1.374,1.949-1.549,2.949-1.549
		c0.525,0,1.024,0.05,1.549,0.073c0.5,0.052,1.025,0.102,1.525,0.102c0.8,0,1.6-0.05,2.424-0.102c0.8-0.023,1.625-0.073,2.424-0.073
		c2.824,0,6.099,1.249,6.099,4.573c0,1.5-0.725,2.949-2.125,3.623c-0.225,0.125-0.4,0.201-0.4,0.5c0,0.375,0.325,0.477,0.625,0.602
		c1.75,0.648,2.524,1.799,2.874,4.498c0.3,2.325,1.925,0.925,1.925,2.45c0,0.948-1.15,1.948-3.974,1.948
		c-3.999,0-4.499-2.299-5.274-5.599c-0.275-1.149-0.7-2.274-2.074-2.274c-0.55,0-0.75,0.076-0.75,1.649
		c0,0.726,0.05,1.726,0.175,2.425c0.2,1.149,1.475,0.801,1.475,2c0,0.899-0.625,1.574-4.674,1.574c-1.2,0-4.749,0-4.749-1.824
		c0-1.301,1.875-0.399,1.875-3.648V73.616z M44.786,74.716c-0.05,0.65-0.175,1.2,0.65,1.2c1.625,0,2.149-0.898,2.149-2.449
		c0-1.225-0.3-2.475-1.75-2.475c-0.925,0-0.899,0.574-0.95,1.35L44.786,74.716z"/>
	<path fill="#F41414" d="M57.737,77.115c0-5.299,4.224-9.049,9.673-9.049c6.898,0,9.548,6.074,9.548,9.299
		c0,5.374-4.749,8.923-9.848,8.923C61.836,86.288,57.737,82.439,57.737,77.115z M66.26,71.792c-1.399,0-2.099,1.449-2.099,2.674
		c0,2.125,1.5,8.099,4.199,8.099c1.525,0,2.174-1.324,2.174-2.674C70.534,77.615,69.184,71.792,66.26,71.792z"/>
	<path fill="#F41414" d="M80.187,72.518c0.05-2.574-1.825-1.324-1.825-2.949c0-1.149,1.45-1.324,2.324-1.324h8.148
		c6.949,0,9.222,4.299,9.222,8.798c0,4.647-2.723,9.022-9.047,9.022c-1.074,0-1.974-0.025-2.749-0.075
		c-0.775-0.024-1.45-0.05-2.149-0.05c-0.699,0-1.425,0.024-2.125,0.05c-0.7,0.05-1.4,0.075-2.125,0.075
		c-0.85,0-1.924-0.426-1.924-1.426c0-1.8,1.974,0.2,2.049-3.449L80.187,72.518z M86.185,81.664c0,1.275,0.2,1.8,1.55,1.8
		c3.149,0,3.699-3.224,3.699-5.724c0-5.85-2.199-6.773-4.124-6.773c-1.05,0-1.125,0.426-1.125,1.375V81.664z"/>
	<path fill="#F41414" d="M114.382,72.742c0-2.676-2.149-1.65-2.149-3.1c0-1.551,2.899-1.5,3.927-1.5c0.948,0,3.696,0,3.696,1.449
		c0,1.399-1.873,0.551-1.873,2.824v6.748c0,1.125,0.024,7.123-8.623,7.123c-9.848,0-8.748-7.598-8.748-7.896v-5.773
		c0.101-1.575-1.6-1.575-1.6-2.725c0-0.351-0.275-1.75,4.872-1.75c4.074,0,4.898,0.75,4.898,1.725c0,1.8-1.824,0.125-1.949,3.175
		v4.599c0,2.976,1.125,4.875,3.775,4.875c3.949,0,3.773-3.274,3.773-3.551V72.742L114.382,72.742z"/>
	<path fill="#F41414" d="M130.559,68.066c2.448,0,4.022,1.227,4.674,1.227c0.552,0,0.699-0.176,1.125-0.176
		c1.05,0,2.399,1.574,2.399,4.35c0,1.426-0.852,2.624-2.325,2.624c-2.574,0-1.925-4.424-6.373-4.424c-1.925,0-2.726,1.8-2.726,3.174
		c0,3.699,1.976,6.849,5.476,6.849c3.174,0,3.647-1.725,4.424-1.725c0.726,0,1.074,0.85,1.074,1.475
		c0,1.101-1.147,3.399-2.397,3.399c-0.851,0-2.601,1.449-5.55,1.449c-5.25,0-9.549-4.147-9.549-9.173
		C120.811,71.992,125.634,68.066,130.559,68.066z"/>
	<path fill="#F41414" d="M151.559,68.418c1.073,0,1.573-0.102,1.948-0.175c0.351-0.101,0.552-0.177,1.025-0.177
		c0.975,0,3,1.926,3,4.625c0,1.25-0.65,2.074-1.926,2.074c-2.174,0-2.148-2.949-3.424-2.949c-0.975,0-0.875,1.351-0.875,1.55v7.674
		c0,2.974,2.299,1.549,2.299,3.299c0,0.774-0.475,1.875-5.148,1.875c-1.272,0-5.946,0.05-5.946-1.875c0-1.323,1.549-0.8,2.049-1.75
		c0.25-0.524,0.351-2.024,0.375-2.649l0.198-5.522c0.101-2.624-0.424-2.599-0.772-2.599c-1.125,0-1.676,2.949-3.698,2.949
		c-0.976,0-1.552-0.9-1.552-1.801c0-2.125,1.802-4.898,3.226-4.898c0.176,0,0.449,0.074,0.926,0.176
		c0.475,0.074,1.148,0.175,2.148,0.175L151.559,68.418L151.559,68.418z"/>
</g>
</svg>
